<svg width="64" height="64" viewBox="0 0 64 64" fill="none" xmlns="http://www.w3.org/2000/svg">
<g clip-path="url(#clip0_1_32)">
<path d="M29.8165 64.0284C27.6018 63.7812 25.3311 63.8043 23.1888 63.1682C22.0057 62.8156 20.7928 62.453 19.6525 61.8631C18.7858 61.4149 17.8662 61.0029 16.9401 60.6536C16.1426 60.3504 15.434 59.9054 14.7254 59.4638C14.0762 59.0584 14.0498 57.5556 14.6068 56.8898C15.2527 56.1186 15.8394 55.298 16.3008 54.4016C16.4623 54.0885 16.9896 53.8874 16.716 53.3997C16.5282 53.0635 16.1887 52.869 15.8921 52.6581C14.6892 51.788 13.5587 50.8158 12.5568 49.7381C11.3572 48.4495 10.2169 47.0982 9.25451 45.5987C8.42398 44.3068 7.6396 42.9918 7.01671 41.601C6.38064 40.1871 5.85991 38.7238 5.42158 37.2242C4.61412 34.4723 4.4032 31.6643 4.3999 28.8267C4.3999 27.1789 4.5548 25.531 4.83823 23.9161C5.08212 22.5286 5.45783 21.1477 5.93901 19.8228C6.49269 18.2969 7.12547 16.7808 7.91315 15.3703C8.7239 13.9201 9.64011 12.5162 10.6882 11.2176C12.0592 9.52035 13.5818 7.95488 15.2989 6.60693C16.3799 5.75993 17.5169 4.97884 18.7264 4.29662C20.0876 3.53201 21.4454 2.80366 22.9153 2.26975C24.0128 1.87097 25.1234 1.54799 26.2407 1.21842C27.1997 0.938278 28.1522 0.730643 29.131 0.595518C32.3576 0.15389 35.5874 0.183551 38.7974 0.707571C40.4486 0.977821 41.9943 1.62379 43.5498 2.23679C44.7099 2.6916 45.8305 3.2321 46.9411 3.77919C47.6365 4.12195 48.4868 4.3164 48.9318 5.10408C49.2053 5.58526 49.2482 6.53442 48.9318 6.98923C48.2133 8.02738 47.5014 9.06883 46.7895 10.1103C46.5654 10.4399 46.5094 10.8156 46.8653 11.0496C47.2114 11.277 47.4685 11.5967 47.798 11.8306C49.2185 12.8358 50.4346 14.0619 51.6046 15.3373C52.801 16.6391 53.8688 18.0497 54.7652 19.569C55.2991 20.4753 55.81 21.3982 56.2483 22.3638C57.0294 24.0875 57.6687 25.8474 58.1433 27.6798C58.9046 30.6229 59.0892 33.6055 58.964 36.6277C58.9178 37.7482 58.819 38.8754 58.5981 39.9531C58.3608 41.1066 58.1301 42.2766 57.7643 43.4037C57.4644 44.3199 57.1579 45.2427 56.7492 46.1128C56.0703 47.5662 55.3947 49.0196 54.4917 50.3709C53.9973 51.1124 53.5029 51.8671 52.9855 52.5922C52.356 53.4722 51.5716 54.2434 50.8499 55.0607C50.0886 55.9242 49.1987 56.6558 48.3188 57.3776C47.2872 58.2213 46.2095 59.0156 45.0395 59.6912C44.0145 60.2877 42.9698 60.8447 41.902 61.3424C40.4618 62.018 38.9391 62.4728 37.4033 62.9144C35.6335 63.422 33.8505 63.6461 32.0379 63.7911C31.2963 63.8504 30.5746 64.1009 29.8165 64.0284ZM33.5111 6.95628C32.1928 6.92332 30.8844 7.08811 29.5891 7.26608C28.3368 7.43745 27.1305 7.8659 25.9276 8.26468C24.873 8.61403 23.8546 9.05565 22.8988 9.60275C21.7222 10.2718 20.5687 10.9771 19.5174 11.857C18.5946 12.6315 17.708 13.4324 16.894 14.3123C16.1393 15.1231 15.4933 16.0195 14.8539 16.9291C13.9344 18.2441 13.2127 19.658 12.6227 21.1312C11.8779 22.99 11.4363 24.9246 11.1924 26.9284C10.8628 29.621 11.1001 32.251 11.723 34.8579C11.9998 36.0213 12.4151 37.1517 12.893 38.269C13.539 39.7916 14.3003 41.2318 15.3022 42.5238C16.5414 44.1255 18.0343 45.5097 19.5537 46.8478C20.2688 47.4805 20.5358 48.5022 20.0315 49.3261C19.3131 50.4994 18.5616 51.6595 17.7542 52.7735C17.3851 53.281 17.596 53.5513 17.9552 53.8281C18.2156 54.0291 18.5287 54.1577 18.8088 54.3324C19.8239 54.9585 20.9016 55.4628 22.0156 55.8616C23.1295 56.2604 24.2501 56.6394 25.4464 56.7943C27.1305 57.0151 28.8015 57.4402 30.5119 57.282C31.8105 57.1601 33.1057 56.9755 34.4009 56.7745C35.617 56.5866 36.7606 56.201 37.8812 55.7858C39.6642 55.1233 41.3219 54.1939 42.894 53.0932C44.2551 52.1407 45.468 51.0333 46.572 49.8172C47.7882 48.4791 48.7769 46.9697 49.6766 45.3877C50.7411 43.5125 51.3475 41.4889 51.8979 39.4456C52.2572 38.1075 52.3461 36.6936 52.356 35.3094C52.3725 33.3188 52.1945 31.3447 51.6639 29.3936C51.1762 27.5974 50.5137 25.9034 49.6964 24.2325C48.6384 22.0639 47.0169 20.3864 45.3493 18.7385C44.9011 18.2969 44.4529 17.8322 43.9124 17.4598C43.1675 16.9456 42.838 15.9965 43.1445 15.2978C43.3982 14.7177 43.7476 14.1706 44.1398 13.6532C44.7001 12.9149 45.1977 12.1273 45.6855 11.3363C45.9491 10.9078 45.7547 10.5124 45.3658 10.2784C43.4312 9.12816 41.3845 8.22512 39.2094 7.63848C37.344 7.14413 35.4325 7.00571 33.5111 6.95628Z" fill="#34D399"/>
<path d="M29.6036 50.9408C27.7415 51.1583 25.8498 50.486 23.9877 49.7675C23.3879 49.5368 22.7913 49.2205 22.2146 48.9041C21.5389 48.5316 21.3577 47.0585 21.8817 46.2906C22.5145 45.3579 23.1571 44.4351 23.7899 43.5024C24.1821 42.9256 24.1393 42.6488 23.5889 42.2039C21.6576 40.6384 20.0658 38.7961 18.9979 36.5352C18.3816 35.2268 18.0158 33.8426 17.6467 32.4452C17.1919 30.7248 17.3171 29.0176 17.4358 27.3203C17.5182 26.1339 17.8609 24.9211 18.3025 23.8104C18.9979 22.0637 19.8845 20.3796 21.1501 18.9624C22.3365 17.6309 23.6515 16.4379 25.2302 15.5381C26.6638 14.7175 28.1535 14.0814 29.7486 13.6892C31.6568 13.2212 33.6145 12.9938 35.5458 13.3201C37.1607 13.5937 38.7756 14.0155 40.2356 14.8526C40.6212 15.0734 41.0892 15.1459 41.399 15.5019C41.9922 16.1874 41.9988 17.2585 41.432 18.0528C40.7563 19.0052 40.084 19.961 39.4282 20.9266C39.2403 21.2035 39.2073 21.4737 39.5336 21.744C40.1928 22.2845 40.8486 22.8349 41.4385 23.4479C41.9164 23.9455 42.335 24.5124 42.7832 25.0397C43.3995 25.7648 43.7488 26.6381 44.3058 27.3896C44.5431 27.7093 44.6222 28.1443 44.787 28.52C45.9207 31.0742 46.1152 33.7701 45.9372 36.5055C45.8219 38.272 45.3209 39.9661 44.5662 41.5678C43.9037 42.9784 43.0436 44.2571 42.0285 45.4567C40.8519 46.8442 39.4611 47.9648 37.9055 48.848C36.8015 49.4742 35.6183 49.9719 34.3626 50.3179C32.8598 50.7266 31.3602 51.01 29.6036 50.9408ZM29.4784 44.3131C31.2745 44.3263 32.6455 43.9242 33.9441 43.3409C35.2887 42.7378 36.3763 41.7853 37.3123 40.6252C38.3966 39.2772 39.0458 37.7711 39.237 36.0738C39.3754 34.8247 39.3293 33.5822 39.0228 32.3398C38.6306 30.7611 37.8923 29.3901 36.696 28.3157C35.7567 27.4753 35.4271 26.4569 36.1819 25.3396C36.8674 24.3311 37.543 23.316 38.2417 22.3141C38.5614 21.856 38.624 21.4803 38.0934 21.1277C37.9352 21.0222 37.7869 20.9036 37.6089 20.8179C37.0025 20.5279 36.3401 20.429 35.7106 20.2148C33.5881 19.4963 31.5415 19.9511 29.6036 20.775C28.338 21.3155 27.2307 22.1658 26.298 23.2765C25.1807 24.6047 24.5018 26.1108 24.159 27.7422C23.8064 29.4066 24.047 31.0841 24.6303 32.7056C25.1445 34.1425 26.0343 35.3026 27.1285 36.321C27.4746 36.644 27.6064 37.0197 27.6163 37.4679C27.6294 38.0974 27.3987 38.5917 27.0099 39.1158C26.3276 40.032 25.7509 41.0306 25.0489 41.9402C24.7193 42.3719 24.8347 42.8366 25.3455 43.1036C26.7462 43.8451 28.2359 44.2538 29.4784 44.3131Z" fill="#34D399"/>
</g>
<defs>
<clipPath id="clip0_1_32">
<rect width="64" height="64" fill="white"/>
</clipPath>
</defs>
</svg>
