<svg width="152" height="35" viewBox="0 0 152 35" fill="none" xmlns="http://www.w3.org/2000/svg">
<path d="M37.0184 17.1649C37.0184 11.7186 41.0308 7.59967 47.3538 7.59967C52.8267 7.59967 56.0157 10.5491 56.5463 13.9759H52.6936C52.2145 11.9564 50.1169 10.8401 47.565 10.8401H47.1391C43.1 10.8401 40.7096 13.6298 40.7096 17.1631C40.7096 20.6963 43.1 23.486 47.1391 23.486H47.565C50.1151 23.486 52.1879 22.4497 52.6936 20.3503H56.5463C55.9625 24.0965 52.5871 26.7265 47.3538 26.7265C40.8977 26.73 37.0184 22.7176 37.0184 17.1649Z" fill="#F2F0E1"/>
<path d="M59.9727 26.4633V7.86536H63.639V26.4633H59.9727Z" fill="#F2F0E1"/>
<path d="M67.2262 17.1647C67.2262 11.7184 71.2386 7.59955 77.5616 7.59955C83.0345 7.59955 86.2235 10.549 86.7541 13.9757H82.9014C82.4222 11.9562 80.3246 10.84 77.7727 10.84H77.3468C73.3078 10.84 70.9174 13.6297 70.9174 17.163C70.9174 20.6962 73.3078 23.4859 77.3468 23.4859H77.7727C80.3229 23.4859 82.3956 22.4495 82.9014 20.3502H86.7541C86.1702 24.0964 82.7949 26.7264 77.5616 26.7264C71.1055 26.7299 67.2262 22.7175 67.2262 17.1647Z" fill="#F2F0E1"/>
<path d="M90.1812 7.86536H106.628V11.1076H93.8476H90.1812V7.86536ZM90.1812 23.2229H93.8476H106.893V26.4651H90.1794V23.2229H90.1812ZM90.1812 18.5202V15.2779H93.8476H106.611V18.5202H93.8476H90.1812Z" fill="#6E47E9"/>
<path d="M110.453 26.4633V7.86536H120.815C124.534 7.86536 127.164 10.018 127.164 12.9408C127.164 15.3329 125.704 16.9532 124.188 17.4838C126.128 17.4838 126.791 18.3604 126.791 20.2202V26.4633H123.125V21.017C123.125 19.7677 122.752 19.4234 121.505 19.4234H114.119V26.4651H110.453V26.4633ZM114.119 16.1812H120.415C122.169 16.1812 123.205 15.2513 123.205 13.6311C123.205 12.144 122.169 11.1076 120.415 11.1076H114.119V16.1812Z" fill="#F2F0E1"/>
<path d="M130.22 17.1647C130.22 11.2127 134.736 7.59955 140.768 7.59955C146.8 7.59955 151.29 11.2127 151.29 17.1647C151.29 23.1168 146.8 26.7299 140.768 26.7299C134.736 26.7299 130.22 23.1168 130.22 17.1647ZM140.981 23.4877C144.568 23.4877 147.597 21.1754 147.597 17.1647C147.597 13.1523 144.568 10.8418 140.981 10.8418H140.555C136.969 10.8418 133.913 13.1541 133.913 17.1647C133.913 21.1771 136.969 23.4877 140.555 23.4877H140.981Z" fill="#F2F0E1"/>
<path d="M14.5877 34.3219C13.3952 34.1888 12.1724 34.2012 11.0189 33.8587C10.3819 33.6689 9.7288 33.4736 9.11478 33.156C8.64805 32.9146 8.15294 32.6928 7.65427 32.5047C7.22481 32.3414 6.84327 32.1019 6.46173 31.8641C6.11213 31.6458 6.09793 30.8366 6.39784 30.4781C6.74567 30.0628 7.06155 29.6209 7.30999 29.1383C7.39695 28.9697 7.68089 28.8614 7.53359 28.5988C7.43244 28.4178 7.24966 28.3131 7.08994 28.1995C6.44221 27.731 5.83351 27.2075 5.29403 26.6272C4.64807 25.9333 4.03405 25.2057 3.51586 24.3983C3.06866 23.7026 2.6463 22.9945 2.3109 22.2456C1.9684 21.4843 1.68801 20.6964 1.45199 19.889C1.01721 18.4071 0.90363 16.8952 0.901855 15.3672C0.901855 14.4799 0.985263 13.5926 1.13788 12.723C1.2692 11.9759 1.47151 11.2324 1.7306 10.519C2.02874 9.69733 2.36946 8.88101 2.7936 8.12148C3.23015 7.34064 3.7235 6.58466 4.28782 5.88546C5.02606 4.97153 5.84594 4.12859 6.77051 3.40277C7.35259 2.9467 7.96483 2.52611 8.61611 2.15876C9.34903 1.74705 10.0802 1.35486 10.8717 1.06738C11.4626 0.852648 12.0606 0.678735 12.6622 0.501273C13.1787 0.350431 13.6915 0.238628 14.2186 0.165868C15.9559 -0.0719303 17.695 -0.0559594 19.4235 0.226205C20.3126 0.371723 21.1449 0.719551 21.9825 1.04963C22.6072 1.29453 23.2106 1.58556 23.8086 1.88015C24.183 2.06471 24.6409 2.16941 24.8805 2.59355C25.0278 2.85264 25.0508 3.36373 24.8805 3.60862C24.4936 4.16763 24.1103 4.72841 23.727 5.28918C23.6063 5.46665 23.5761 5.66895 23.7678 5.79495C23.9541 5.9174 24.0925 6.08954 24.27 6.21553C25.0349 6.75679 25.6897 7.41695 26.3197 8.10373C26.9639 8.8047 27.5388 9.56424 28.0215 10.3823C28.309 10.8704 28.5841 11.3672 28.8201 11.8872C29.2407 12.8153 29.585 13.763 29.8405 14.7497C30.2505 16.3344 30.3498 17.9404 30.2824 19.5677C30.2576 20.1711 30.2043 20.778 30.0854 21.3583C29.9576 21.9795 29.8334 22.6094 29.6364 23.2164C29.475 23.7097 29.3099 24.2066 29.0899 24.6751C28.7243 25.4577 28.3605 26.2403 27.8742 26.9679C27.6081 27.3672 27.3419 27.7736 27.0632 28.164C26.7243 28.6378 26.3019 29.0531 25.9133 29.4932C25.5034 29.9581 25.0242 30.3521 24.5504 30.7407C23.9949 31.195 23.4146 31.6227 22.7846 31.9865C22.2327 32.3077 21.6702 32.6076 21.0952 32.8756C20.3197 33.2394 19.4998 33.4843 18.6729 33.7221C17.7199 33.9954 16.7598 34.1161 15.7838 34.1941C15.3845 34.2261 14.9959 34.3609 14.5877 34.3219ZM16.577 3.59088C15.8672 3.57313 15.1627 3.66187 14.4652 3.7577C13.7909 3.84998 13.1414 4.08068 12.4936 4.2954C11.9258 4.48351 11.3774 4.72131 10.8628 5.0159C10.2292 5.37614 9.60812 5.75591 9.04202 6.22973C8.54513 6.64677 8.06776 7.078 7.62943 7.55182C7.22304 7.98838 6.87521 8.47107 6.53094 8.96087C6.03582 9.66894 5.64718 10.4302 5.32952 11.2235C4.92846 12.2244 4.69066 13.2661 4.55934 14.3451C4.38188 15.7949 4.50965 17.2111 4.84505 18.6148C4.99412 19.2412 5.21772 19.8499 5.47504 20.4515C5.82287 21.2714 6.2328 22.0469 6.77229 22.7425C7.43954 23.605 8.24344 24.3503 9.06154 25.0708C9.44663 25.4116 9.59038 25.9617 9.31886 26.4053C8.93199 27.0371 8.52738 27.6618 8.0926 28.2616C7.89384 28.5349 8.00742 28.6804 8.20085 28.8295C8.34105 28.9377 8.50963 29.0069 8.66048 29.101C9.20706 29.4382 9.78736 29.7097 10.3872 29.9244C10.987 30.1391 11.5904 30.3432 12.2346 30.4266C13.1414 30.5455 14.0411 30.7745 14.9621 30.6893C15.6613 30.6236 16.3588 30.5242 17.0562 30.416C17.711 30.3148 18.3268 30.1072 18.9302 29.8836C19.8902 29.5269 20.7829 29.0265 21.6294 28.4337C22.3623 27.9209 23.0153 27.3246 23.6098 26.6698C24.2647 25.9493 24.7971 25.1365 25.2815 24.2847C25.8547 23.2749 26.1813 22.1853 26.4776 21.0851C26.6711 20.3646 26.719 19.6032 26.7243 18.8579C26.7332 17.786 26.6373 16.723 26.3516 15.6725C26.089 14.7053 25.7323 13.7931 25.2922 12.8934C24.7225 11.7257 23.8494 10.8224 22.9515 9.93513C22.7101 9.69734 22.4688 9.44711 22.1777 9.24658C21.7767 8.96974 21.5992 8.45865 21.7642 8.08243C21.9009 7.7701 22.089 7.47551 22.3002 7.1969C22.6019 6.79938 22.8698 6.37525 23.1325 5.94934C23.2744 5.71864 23.1697 5.50569 22.9603 5.37969C21.9186 4.76035 20.8166 4.2741 19.6453 3.95822C18.6409 3.69203 17.6116 3.6175 16.577 3.59088Z" fill="#34D399"/>
<path d="M14.473 27.2748C13.4703 27.3919 12.4517 27.0299 11.4491 26.643C11.1261 26.5188 10.8049 26.3484 10.4943 26.1781C10.1305 25.9775 10.0329 25.1843 10.3151 24.7708C10.6558 24.2686 11.0019 23.7717 11.3426 23.2695C11.5538 22.9589 11.5307 22.8099 11.2343 22.5703C10.1944 21.7273 9.33726 20.7353 8.76229 19.5179C8.43044 18.8134 8.23345 18.0681 8.0347 17.3156C7.7898 16.3893 7.85723 15.47 7.92112 14.5561C7.96549 13.9173 8.15005 13.2642 8.38784 12.6662C8.76229 11.7256 9.23966 10.8188 9.92111 10.0557C10.56 9.33874 11.268 8.69633 12.1181 8.21186C12.89 7.76998 13.6922 7.42748 14.5511 7.2163C15.5786 6.96431 16.6327 6.84186 17.6726 7.01755C18.5422 7.16484 19.4118 7.39199 20.1979 7.84274C20.4055 7.96164 20.6575 8.00068 20.8244 8.19234C21.1438 8.56146 21.1473 9.13821 20.8421 9.56589C20.4783 10.0788 20.1163 10.5934 19.7631 11.1134C19.662 11.2624 19.6442 11.4079 19.8199 11.5535C20.1748 11.8445 20.528 12.1409 20.8456 12.4709C21.103 12.7389 21.3283 13.0441 21.5697 13.3281C21.9015 13.7185 22.0897 14.1888 22.3896 14.5934C22.5173 14.7655 22.5599 14.9998 22.6487 15.2021C23.2591 16.5774 23.3638 18.029 23.268 19.502C23.2059 20.4532 22.9361 21.3653 22.5298 22.2278C22.1731 22.9873 21.7099 23.6759 21.1633 24.3218C20.5298 25.0689 19.7809 25.6723 18.9433 26.1479C18.3488 26.4851 17.7117 26.7531 17.0355 26.9394C16.2263 27.1594 15.4189 27.312 14.473 27.2748ZM14.4056 23.706C15.3727 23.7131 16.111 23.4966 16.8102 23.1825C17.5342 22.8578 18.1198 22.3449 18.6238 21.7202C19.2077 20.9944 19.5573 20.1834 19.6602 19.2695C19.7347 18.5969 19.7099 17.9279 19.5449 17.2589C19.3337 16.4088 18.9362 15.6706 18.292 15.0921C17.7862 14.6395 17.6088 14.0912 18.0151 13.4896C18.3843 12.9465 18.7481 12.4 19.1243 11.8605C19.2964 11.6138 19.3301 11.4115 19.0444 11.2216C18.9592 11.1648 18.8794 11.1009 18.7835 11.0548C18.457 10.8986 18.1003 10.8454 17.7614 10.73C16.6185 10.3432 15.5165 10.5881 14.473 11.0317C13.7916 11.3228 13.1953 11.7806 12.6931 12.3787C12.0915 13.0938 11.7259 13.9048 11.5413 14.7833C11.3515 15.6794 11.481 16.5827 11.7951 17.4558C12.0719 18.2296 12.5511 18.8542 13.1403 19.4026C13.3266 19.5765 13.3976 19.7788 13.4029 20.0202C13.41 20.3591 13.2858 20.6253 13.0764 20.9075C12.709 21.4008 12.3985 21.9385 12.0205 22.4283C11.843 22.6608 11.9051 22.911 12.1802 23.0548C12.9344 23.454 13.7365 23.6741 14.4056 23.706Z" fill="#34D399"/>
</svg>
