<svg width="151" height="35" viewBox="0 0 151 35" fill="none" xmlns="http://www.w3.org/2000/svg">
<path d="M36.1166 17.1649C36.1166 11.7186 40.129 7.59967 46.4519 7.59967C51.9249 7.59967 55.1138 10.5491 55.6445 13.9759H51.7918C51.3126 11.9564 49.215 10.8401 46.6631 10.8401H46.2372C42.1982 10.8401 39.8078 13.6298 39.8078 17.1631C39.8078 20.6963 42.1982 23.486 46.2372 23.486H46.6631C49.2132 23.486 51.286 22.4497 51.7918 20.3503H55.6445C55.0606 24.0965 51.6853 26.7265 46.4519 26.7265C39.9959 26.73 36.1166 22.7176 36.1166 17.1649Z" fill="#121213"/>
<path d="M59.0708 26.4633V7.86536H62.7372V26.4633H59.0708Z" fill="#121213"/>
<path d="M66.3243 17.1647C66.3243 11.7184 70.3368 7.59955 76.6597 7.59955C82.1326 7.59955 85.3216 10.549 85.8522 13.9757H81.9995C81.5204 11.9562 79.4228 10.84 76.8709 10.84H76.445C72.4059 10.84 70.0155 13.6297 70.0155 17.163C70.0155 20.6962 72.4059 23.4859 76.445 23.4859H76.8709C79.421 23.4859 81.4938 22.4495 81.9995 20.3502H85.8522C85.2684 24.0964 81.8931 26.7264 76.6597 26.7264C70.2037 26.7299 66.3243 22.7175 66.3243 17.1647Z" fill="#121213"/>
<path d="M89.2794 7.86536H105.727V11.1076H92.9457H89.2794V7.86536ZM89.2794 23.2229H92.9457H105.991V26.4651H89.2776V23.2229H89.2794ZM89.2794 18.5202V15.2779H92.9457H105.709V18.5202H92.9457H89.2794Z" fill="#6E47E9"/>
<path d="M109.551 26.4633V7.86536H119.913C123.632 7.86536 126.262 10.018 126.262 12.9408C126.262 15.3329 124.802 16.9532 123.286 17.4838C125.226 17.4838 125.89 18.3604 125.89 20.2202V26.4633H122.223V21.017C122.223 19.7677 121.851 19.4234 120.603 19.4234H113.217V26.4651H109.551V26.4633ZM113.217 16.1812H119.513C121.267 16.1812 122.303 15.2513 122.303 13.6311C122.303 12.144 121.267 11.1076 119.513 11.1076H113.217V16.1812Z" fill="#121213"/>
<path d="M129.318 17.1647C129.318 11.2127 133.834 7.59955 139.866 7.59955C145.898 7.59955 150.388 11.2127 150.388 17.1647C150.388 23.1168 145.898 26.7299 139.866 26.7299C133.834 26.7299 129.318 23.1168 129.318 17.1647ZM140.079 23.4877C143.666 23.4877 146.695 21.1754 146.695 17.1647C146.695 13.1523 143.666 10.8418 140.079 10.8418H139.653C136.067 10.8418 133.011 13.1541 133.011 17.1647C133.011 21.1771 136.067 23.4877 139.653 23.4877H140.079Z" fill="#121213"/>
<path d="M13.6858 34.3219C12.4933 34.1888 11.2706 34.2012 10.1171 33.8587C9.48 33.6689 8.82694 33.4736 8.21292 33.156C7.7462 32.9146 7.25108 32.6928 6.75241 32.5047C6.32296 32.3414 5.94142 32.1019 5.55987 31.8641C5.21027 31.6458 5.19608 30.8366 5.49599 30.4781C5.84381 30.0628 6.15969 29.6209 6.40814 29.1383C6.4951 28.9697 6.77903 28.8614 6.63174 28.5988C6.53059 28.4178 6.3478 28.3131 6.18809 28.1995C5.54035 27.731 4.93166 27.2075 4.39217 26.6272C3.74621 25.9333 3.1322 25.2057 2.61401 24.3983C2.16681 23.7026 1.74445 22.9945 1.40905 22.2456C1.06654 21.4843 0.786155 20.6964 0.550131 19.889C0.11535 18.4071 0.00177462 16.8952 0 15.3672C0 14.4799 0.0834073 13.5926 0.236024 12.723C0.367346 11.9759 0.569651 11.2324 0.828745 10.519C1.12688 9.69733 1.46761 8.88101 1.89174 8.12148C2.3283 7.34064 2.82164 6.58466 3.38597 5.88546C4.12421 4.97153 4.94408 4.12859 5.86866 3.40277C6.45073 2.9467 7.06297 2.52611 7.71426 2.15876C8.44717 1.74705 9.17832 1.35486 9.96979 1.06738C10.5607 0.852648 11.1588 0.678735 11.7604 0.501273C12.2768 0.350431 12.7897 0.238628 13.3167 0.165868C15.0541 -0.0719303 16.7932 -0.0559594 18.5217 0.226205C19.4107 0.371723 20.243 0.719551 21.0807 1.04963C21.7053 1.29453 22.3087 1.58556 22.9067 1.88015C23.2812 2.06471 23.739 2.16941 23.9786 2.59355C24.1259 2.85264 24.149 3.36373 23.9786 3.60862C23.5917 4.16763 23.2084 4.72841 22.8251 5.28918C22.7044 5.46665 22.6743 5.66895 22.8659 5.79495C23.0523 5.9174 23.1907 6.08954 23.3681 6.21553C24.133 6.75679 24.7878 7.41695 25.4178 8.10373C26.062 8.8047 26.637 9.56424 27.1197 10.3823C27.4072 10.8704 27.6822 11.3672 27.9183 11.8872C28.3388 12.8153 28.6831 13.763 28.9387 14.7497C29.3486 16.3344 29.448 17.9404 29.3805 19.5677C29.3557 20.1711 29.3025 20.778 29.1836 21.3583C29.0558 21.9795 28.9316 22.6094 28.7346 23.2164C28.5731 23.7097 28.4081 24.2066 28.188 24.6751C27.8224 25.4577 27.4586 26.2403 26.9724 26.9679C26.7062 27.3672 26.44 27.7736 26.1614 28.164C25.8224 28.6378 25.4001 29.0531 25.0114 29.4932C24.6015 29.9581 24.1224 30.3521 23.6485 30.7407C23.0931 31.195 22.5128 31.6227 21.8828 31.9865C21.3309 32.3077 20.7683 32.6076 20.1934 32.8756C19.4179 33.2394 18.598 33.4843 17.771 33.7221C16.818 33.9954 15.858 34.1161 14.8819 34.1941C14.4826 34.2261 14.094 34.3609 13.6858 34.3219ZM15.6752 3.59088C14.9653 3.57313 14.2608 3.66187 13.5634 3.7577C12.889 3.84998 12.2395 4.08068 11.5918 4.2954C11.0239 4.48351 10.4756 4.72131 9.96092 5.0159C9.32738 5.37614 8.70627 5.75591 8.14016 6.22973C7.64327 6.64677 7.1659 7.078 6.72757 7.55182C6.32118 7.98838 5.97336 8.47107 5.62908 8.96087C5.13396 9.66894 4.74532 10.4302 4.42767 11.2235C4.0266 12.2244 3.78881 13.2661 3.65748 14.3451C3.48002 15.7949 3.60779 17.2111 3.9432 18.6148C4.09226 19.2412 4.31587 19.8499 4.57319 20.4515C4.92101 21.2714 5.33095 22.0469 5.87043 22.7425C6.53769 23.605 7.34159 24.3503 8.15968 25.0708C8.54478 25.4116 8.68852 25.9617 8.41701 26.4053C8.03014 27.0371 7.62553 27.6618 7.19075 28.2616C6.99199 28.5349 7.10556 28.6804 7.299 28.8295C7.43919 28.9377 7.60778 29.0069 7.75862 29.101C8.3052 29.4382 8.8855 29.7097 9.48532 29.9244C10.0851 30.1391 10.6885 30.3432 11.3327 30.4266C12.2395 30.5455 13.1393 30.7745 14.0603 30.6893C14.7595 30.6236 15.4569 30.5242 16.1543 30.416C16.8092 30.3148 17.425 30.1072 18.0283 29.8836C18.9884 29.5269 19.881 29.0265 20.7275 28.4337C21.4604 27.9209 22.1135 27.3246 22.708 26.6698C23.3628 25.9493 23.8952 25.1365 24.3797 24.2847C24.9529 23.2749 25.2794 22.1853 25.5758 21.0851C25.7692 20.3646 25.8171 19.6032 25.8224 18.8579C25.8313 17.786 25.7355 16.723 25.4498 15.6725C25.1871 14.7053 24.8304 13.7931 24.3903 12.8934C23.8207 11.7257 22.9476 10.8224 22.0496 9.93513C21.8083 9.69734 21.5669 9.44711 21.2759 9.24658C20.8748 8.96974 20.6973 8.45865 20.8624 8.08243C20.999 7.7701 21.1871 7.47551 21.3983 7.1969C21.7 6.79938 21.968 6.37525 22.2306 5.94934C22.3726 5.71864 22.2679 5.50569 22.0585 5.37969C21.0168 4.76035 19.9147 4.2741 18.7435 3.95822C17.7391 3.69203 16.7098 3.6175 15.6752 3.59088Z" fill="#34D399"/>
<path d="M13.5711 27.2748C12.5685 27.3919 11.5499 27.0299 10.5472 26.643C10.2242 26.5188 9.90302 26.3484 9.59246 26.1781C9.22866 25.9775 9.13106 25.1843 9.41322 24.7708C9.75395 24.2686 10.1 23.7717 10.4407 23.2695C10.6519 22.9589 10.6288 22.8099 10.3325 22.5703C9.29255 21.7273 8.43541 20.7353 7.86043 19.5179C7.52858 18.8134 7.3316 18.0681 7.13284 17.3156C6.88794 16.3893 6.95538 15.47 7.01926 14.5561C7.06363 13.9173 7.24819 13.2642 7.48599 12.6662C7.86043 11.7256 8.33781 10.8188 9.01926 10.0557C9.65812 9.33874 10.3662 8.69633 11.2162 8.21186C11.9882 7.76998 12.7903 7.42748 13.6492 7.2163C14.6767 6.96431 15.7309 6.84186 16.7708 7.01755C17.6403 7.16484 18.5099 7.39199 19.2961 7.84274C19.5037 7.96164 19.7557 8.00068 19.9225 8.19234C20.2419 8.56146 20.2455 9.13821 19.9402 9.56589C19.5764 10.0788 19.2144 10.5934 18.8613 11.1134C18.7601 11.2624 18.7424 11.4079 18.9181 11.5535C19.273 11.8445 19.6261 12.1409 19.9438 12.4709C20.2011 12.7389 20.4265 13.0441 20.6678 13.3281C20.9997 13.7185 21.1878 14.1888 21.4877 14.5934C21.6155 14.7655 21.6581 14.9998 21.7468 15.2021C22.3573 16.5774 22.462 18.029 22.3661 19.502C22.304 20.4532 22.0343 21.3653 21.6279 22.2278C21.2712 22.9873 20.808 23.6759 20.2614 24.3218C19.6279 25.0689 18.879 25.6723 18.0414 26.1479C17.4469 26.4851 16.8098 26.7531 16.1337 26.9394C15.3245 27.1594 14.517 27.312 13.5711 27.2748ZM13.5037 23.706C14.4709 23.7131 15.2091 23.4966 15.9083 23.1825C16.6324 22.8578 17.218 22.3449 17.722 21.7202C18.3058 20.9944 18.6554 20.1834 18.7583 19.2695C18.8329 18.5969 18.808 17.9279 18.643 17.2589C18.4318 16.4088 18.0343 15.6706 17.3901 15.0921C16.8844 14.6395 16.7069 14.0912 17.1133 13.4896C17.4824 12.9465 17.8462 12.4 18.2224 11.8605C18.3946 11.6138 18.4283 11.4115 18.1426 11.2216C18.0574 11.1648 17.9775 11.1009 17.8817 11.0548C17.5552 10.8986 17.1985 10.8454 16.8595 10.73C15.7167 10.3432 14.6146 10.5881 13.5711 11.0317C12.8897 11.3228 12.2934 11.7806 11.7912 12.3787C11.1896 13.0938 10.824 13.9048 10.6395 14.7833C10.4496 15.6794 10.5791 16.5827 10.8933 17.4558C11.1701 18.2296 11.6492 18.8542 12.2384 19.4026C12.4247 19.5765 12.4957 19.7788 12.5011 20.0202C12.5082 20.3591 12.3839 20.6253 12.1745 20.9075C11.8072 21.4008 11.4966 21.9385 11.1186 22.4283C10.9412 22.6608 11.0033 22.911 11.2783 23.0548C12.0326 23.454 12.8347 23.6741 13.5037 23.706Z" fill="#34D399"/>
</svg>
